<?xml version="1.0" standalone="no"?>
<!DOCTYPE svg PUBLIC "-//W3C//DTD SVG 20010904//EN"
 "http://www.w3.org/TR/2001/REC-SVG-20010904/DTD/svg10.dtd">
<svg version="1.0" xmlns="http://www.w3.org/2000/svg"
 width="601.000000pt" height="407.000000pt" viewBox="0 0 601.000000 407.000000"
 preserveAspectRatio="xMidYMid meet">

<g transform="translate(0.000000,407.000000) scale(0.100000,-0.100000)"
fill="#000000" stroke="none">
<path d="M3570 4051 c-20 -7 -368 -178 -428 -211 -10 -5 -411 -208 -892 -451
-1142 -576 -1913 -966 -2075 -1048 -156 -80 -167 -95 -158 -204 l6 -68 71 -61
c39 -33 75 -68 80 -76 5 -9 28 -100 52 -202 23 -102 45 -192 48 -201 6 -14
153 -130 365 -288 25 -19 282 -215 571 -435 289 -219 623 -474 743 -565 249
-190 311 -231 349 -231 49 0 0 -28 878 496 156 92 1925 1142 2248 1333 115 69
177 111 184 127 8 17 67 58 172 121 89 53 169 104 179 113 11 10 25 46 32 81
12 56 12 68 -2 97 -12 25 -149 128 -617 462 -330 236 -631 451 -669 477 -37
26 -82 58 -100 71 -118 86 -432 309 -482 344 -33 23 -100 71 -150 108 -294
216 -328 234 -405 211z m206 -628 c22 -17 31 -29 24 -33 -7 -4 -11 -10 -11
-14 3 -21 0 -37 -6 -33 -5 2 -16 -4 -25 -15 -17 -17 -17 -18 12 -18 32 0 100
-38 100 -55 0 -34 -70 -52 -107 -27 -21 13 -34 40 -15 28 5 -3 22 -1 38 4 29
9 27 9 -126 10 -8 0 -43 -3 -77 -6 -50 -4 -69 -1 -103 16 -23 12 -40 23 -38
25 7 7 283 144 291 144 5 1 24 -11 43 -26z m295 -49 c13 -16 12 -16 -7 -6 -11
6 -27 19 -35 28 -13 16 -12 16 7 6 11 -6 27 -19 35 -28z m-1379 -19 c2 -13 16
-23 40 -30 20 -5 40 -13 44 -17 11 -11 -30 -10 -63 2 l-28 10 23 -19 c43 -37
2 -33 -48 4 -50 37 -61 71 -13 40 24 -16 25 -16 18 4 -7 23 3 47 15 34 5 -4
10 -17 12 -28z m-76 -36 c5 -8 -1 -10 -20 -7 -39 8 -41 -7 -3 -36 39 -30 59
-33 55 -8 -4 23 26 23 30 0 4 -23 -40 -41 -70 -29 -13 5 -36 21 -51 35 -24 22
-27 29 -17 41 15 18 66 20 76 4z m-110 -41 c-26 -14 -8 -30 27 -23 29 5 30 5
15 -8 -10 -8 -18 -17 -18 -20 0 -11 33 -16 50 -7 10 6 21 6 24 1 5 -8 -35 -31
-55 -31 -5 0 -32 17 -58 39 l-49 38 31 15 c33 16 62 12 33 -4z m1030 -73 c65
-48 121 -91 123 -97 5 -14 -4 -9 -139 90 -125 92 -144 108 -119 99 9 -3 70
-44 135 -92z m574 60 c-7 -8 -18 -15 -24 -15 -6 0 -2 7 8 15 25 19 32 19 16 0z
m-1637 -40 c43 -30 48 -57 12 -73 -14 -7 -27 -12 -29 -12 -1 0 -26 18 -55 39
l-53 40 29 15 c39 21 53 20 96 -9z m1202 15 c4 -7 13 -6 27 1 16 9 24 7 40 -9
19 -19 19 -19 -43 -16 -67 4 -82 10 -59 24 19 12 27 12 35 0z m-1333 -90 c26
-19 47 -38 48 -42 0 -15 -24 -7 -58 18 -28 22 -32 23 -24 7 6 -11 18 -26 27
-33 29 -24 -6 -30 -48 -9 -47 24 -61 18 -18 -7 17 -10 31 -22 31 -26 0 -16
-24 -7 -72 28 -43 32 -48 39 -35 51 13 13 20 12 55 -6 55 -28 61 -26 28 8 -26
27 -27 30 -9 40 22 13 18 14 75 -29z m875 -40 c18 -17 27 -30 20 -30 -8 0 -17
-12 -20 -26 -4 -21 4 -31 50 -66 l55 -40 -81 -45 -82 -45 -57 43 c-31 23 -59
44 -62 46 -2 2 1 8 8 12 7 4 -14 5 -46 3 -45 -3 -68 0 -98 16 l-39 20 95 44
c52 23 120 55 150 70 30 14 59 27 64 27 4 1 24 -12 43 -29z m-957 -73 c0 -5
-11 -6 -24 -3 -31 8 -56 -2 -50 -19 3 -7 1 -16 -4 -19 -6 -3 -26 15 -46 42
-31 41 -33 48 -19 59 12 9 28 6 79 -20 35 -17 64 -35 64 -40z m1246 32 c4 -8
1 -8 -14 0 -12 6 -24 16 -28 22 -4 8 -1 8 14 0 12 -6 24 -16 28 -22z m-1436
-8 c0 -5 -7 -12 -16 -15 -27 -10 -4 -27 29 -21 29 5 30 5 14 -8 -15 -12 -15
-16 -3 -26 11 -9 20 -9 35 -2 24 13 31 14 31 3 0 -10 -45 -32 -63 -32 -7 0
-32 18 -56 39 l-45 38 30 16 c34 19 44 21 44 8z m2300 -67 c33 -25 57 -50 54
-55 -3 -6 -18 -15 -32 -20 -26 -10 -26 -11 -8 -24 10 -8 16 -17 13 -22 -3 -4
-39 -26 -81 -48 l-75 -40 -32 19 c-18 10 -29 14 -25 7 16 -25 -41 -9 -111 31
-40 23 -73 44 -73 47 0 9 272 148 292 150 10 0 45 -20 78 -45z m-2358 9 c7
-10 25 -24 41 -32 15 -8 27 -18 27 -23 0 -11 -28 -10 -35 2 -3 6 -16 10 -27
10 -20 0 -20 -1 -4 -19 33 -37 -3 -33 -50 5 -40 33 -47 36 -60 22 -14 -14 -12
-18 25 -44 22 -16 41 -32 41 -36 0 -17 -29 -7 -65 22 -42 33 -63 38 -71 15 -4
-8 -17 -15 -30 -15 -13 0 -24 -4 -24 -10 0 -5 22 -10 49 -10 59 0 88 -23 56
-46 -22 -16 -61 -18 -70 -4 -4 6 7 10 24 10 17 0 31 5 31 10 0 6 -22 10 -49
10 -56 0 -82 19 -61 45 7 8 26 15 42 15 16 0 27 4 23 10 -3 5 12 18 35 30 22
11 40 17 40 13 0 -5 4 -3 8 3 23 34 84 44 104 17z m2606 -13 c12 -12 22 -23
22 -26 0 -8 -36 14 -50 30 -18 23 2 19 28 -4z m-1674 -82 c143 -108 143 -108
129 -108 -6 0 -63 41 -126 90 -64 50 -121 90 -126 90 -6 0 -11 5 -11 10 0 6 3
10 6 10 4 0 61 -41 128 -92z m601 52 c-3 -5 -11 -10 -16 -10 -6 0 -7 5 -4 10
3 6 11 10 16 10 6 0 7 -4 4 -10z m1165 -75 c0 -8 -4 -15 -10 -15 -5 0 -7 7 -4
15 4 8 8 15 10 15 2 0 4 -7 4 -15z m-625 -87 c69 -51 125 -96 125 -101 0 -9
-25 7 -157 106 -86 63 -113 87 -99 87 3 0 62 -41 131 -92z m-2441 61 c24 -7
35 -14 29 -20 -6 -6 -22 -5 -41 2 -77 27 -193 -28 -177 -83 21 -72 149 -109
227 -67 28 15 50 56 43 78 -6 19 -12 20 -93 14 -48 -3 -89 -8 -92 -10 -2 -2 9
-14 25 -27 29 -23 30 -23 43 -5 7 10 20 19 28 19 13 0 12 -5 -3 -30 -18 -32
-38 -37 -64 -17 -65 51 -72 58 -62 68 5 5 59 14 119 19 98 9 110 8 122 -7 45
-61 -40 -143 -149 -143 -86 0 -179 58 -179 112 0 77 116 127 224 97z m2806
-17 c0 -15 -61 -43 -80 -37 -15 5 -18 3 -14 -9 9 -24 -52 -51 -84 -37 -30 14
-30 14 65 67 58 31 82 39 96 33 9 -6 17 -13 17 -17z m206 3 c-11 -8 -24 -15
-30 -15 -5 0 -1 7 10 15 10 8 24 14 29 14 6 0 1 -6 -9 -14z m-2038 -33 c18
-14 29 -28 24 -31 -6 -3 -12 -17 -14 -31 -2 -14 -9 -24 -16 -22 -24 5 -3 -15
57 -54 33 -21 60 -41 61 -44 0 -3 -38 -25 -84 -50 l-84 -44 -58 39 c-31 22
-62 44 -68 50 -6 5 -30 11 -52 12 -23 1 -64 13 -90 26 l-48 25 159 80 c88 44
165 77 170 74 6 -3 25 -17 43 -30z m1452 -52 c0 -5 -2 -10 -4 -10 -3 0 -8 5
-11 10 -3 6 -1 10 4 10 6 0 11 -4 11 -10z m-289 -62 c60 -49 106 -91 91 -83
-7 3 -24 -3 -38 -14 -18 -14 -22 -21 -11 -21 8 0 25 -9 38 -19 l24 -19 -108
-53 c-114 -57 -130 -58 -152 -11 -5 12 -13 22 -18 22 -4 0 -5 -4 -2 -10 3 -6
-4 -10 -17 -10 -23 0 -101 42 -147 78 l-24 19 149 76 c82 41 155 76 162 76 7
1 31 -14 53 -31z m1264 -36 c-6 -7 -35 18 -35 31 0 5 9 2 20 -8 11 -10 18 -20
15 -23z m-2704 -74 c71 -56 127 -104 124 -106 -3 -3 -32 16 -65 41 -67 52 -70
54 -70 31 0 -8 -5 -12 -10 -9 -6 4 -8 15 -5 25 4 13 -9 29 -54 61 -53 39 -72
59 -55 59 3 0 63 -46 135 -102z m609 67 c0 -2 -10 -9 -22 -15 -22 -11 -22 -10
-4 4 21 17 26 19 26 11z m2036 -96 c110 -75 125 -88 100 -90 -36 -3 -41 -5
-38 -18 1 -7 -2 -10 -8 -6 -5 3 -10 0 -10 -7 0 -8 -5 -6 -11 5 -5 9 -15 17
-22 17 -8 0 -7 -3 2 -9 19 -12 7 -28 -40 -51 -30 -16 -39 -26 -39 -46 0 -25
-1 -26 -22 -12 -16 11 -32 12 -68 5 -35 -7 -55 -5 -82 6 -48 20 -181 107 -174
114 8 8 290 161 299 162 5 1 55 -31 113 -70z m-1479 -81 c74 -56 130 -104 123
-106 -6 -2 -32 13 -58 35 -26 21 -84 65 -129 98 -74 54 -96 75 -77 75 4 0 67
-46 141 -102z m633 82 c0 -5 -4 -10 -10 -10 -5 0 -10 5 -10 10 0 6 5 10 10 10
6 0 10 -4 10 -10z m-30 -15 c0 -2 -10 -9 -22 -15 -22 -11 -22 -10 -4 4 21 17
26 19 26 11z m-2102 -56 c45 -33 52 -42 25 -32 -10 4 -14 2 -10 -4 11 -18 -14
-85 -33 -90 -10 -3 -21 -12 -25 -21 -5 -14 -4 -15 6 -4 20 19 31 14 24 -10 -5
-18 -4 -20 4 -8 9 13 12 13 26 0 14 -14 13 -18 -5 -38 -16 -17 -17 -22 -6 -22
8 0 16 6 19 13 5 16 37 -9 37 -29 0 -19 -54 -18 -70 1 -7 8 -25 15 -41 15 -30
0 -47 15 -27 23 7 3 1 6 -14 6 -16 1 -28 5 -28 10 0 5 -35 7 -78 4 -70 -5 -83
-3 -131 21 -29 15 -50 30 -46 34 6 7 315 159 326 161 3 1 24 -13 47 -30z
m2612 -84 c94 -71 133 -109 73 -69 -43 27 -183 134 -183 139 0 11 17 1 110
-70z m667 53 c-3 -8 -6 -5 -6 6 -1 11 2 17 5 13 3 -3 4 -12 1 -19z m-1802 -8
c3 -5 1 -10 -4 -10 -6 0 -11 5 -11 10 0 6 2 10 4 10 3 0 8 -4 11 -10z m1775
-15 c0 -2 -19 -14 -42 -26 -46 -23 -46 -17 -1 12 29 18 43 23 43 14z m-2048
-77 c71 -58 90 -75 70 -64 -12 7 -92 -38 -100 -57 -2 -4 -11 -2 -20 5 -14 10
-15 10 -4 -2 6 -8 12 -22 12 -32 0 -15 5 -17 25 -12 28 7 75 -2 75 -14 0 -4
-30 -23 -67 -41 -64 -31 -68 -32 -80 -15 -12 16 -11 21 4 31 15 12 13 13 -14
13 -18 0 -35 5 -38 10 -3 6 -11 10 -16 10 -6 0 -8 -4 -4 -9 3 -5 -18 -15 -47
-21 l-53 -12 -68 45 c-38 24 -69 48 -69 52 0 10 292 162 314 164 9 0 45 -22
80 -51z m-1503 -100 c69 -56 128 -103 130 -105 2 -2 2 -6 -2 -9 -3 -4 -30 14
-60 40 -57 48 -71 54 -81 34 -4 -7 -4 -3 -2 9 3 18 -9 34 -60 75 -35 28 -64
53 -64 55 0 11 25 -7 139 -99z m2941 81 c0 -5 -4 -9 -10 -9 -5 0 -10 7 -10 16
0 8 5 12 10 9 6 -3 10 -10 10 -16z m-2300 -14 c0 -2 -13 -11 -30 -20 -38 -19
-40 -11 -2 9 31 17 32 18 32 11z m2021 -71 c95 -73 92 -69 69 -72 -11 -1 -28
-2 -37 -3 -12 -2 -4 -13 28 -41 24 -21 47 -38 52 -38 4 0 7 -4 7 -9 0 -9 -211
-131 -226 -131 -11 0 -273 174 -274 181 0 4 30 22 68 42 37 20 103 56 147 81
44 25 83 46 86 46 4 0 40 -25 80 -56z m-1468 -107 c70 -55 126 -102 123 -105
-3 -2 -30 14 -61 37 -39 30 -62 40 -75 36 -16 -5 -20 -2 -20 17 -1 16 -18 36
-60 68 -33 25 -59 49 -60 53 0 12 13 3 153 -106z m634 81 c-3 -8 -6 -5 -6 6
-1 11 2 17 5 13 3 -3 4 -12 1 -19z m-18 -12 c-2 -2 -15 -9 -29 -15 -24 -11
-24 -11 -6 3 16 13 49 24 35 12z m-2143 -67 c43 -34 55 -46 37 -35 -8 4 -13 1
-13 -9 0 -9 -5 -13 -11 -9 -7 4 -7 -1 1 -16 7 -12 8 -20 3 -17 -5 3 -15 2 -22
-2 -9 -6 -2 -12 23 -21 26 -8 42 -22 56 -50 11 -22 20 -43 20 -48 0 -5 -27
-23 -59 -41 -64 -34 -70 -34 -162 -5 -36 11 -51 23 -63 47 -8 18 -16 27 -16
20 0 -12 -15 -11 -93 7 -41 9 -92 38 -83 47 9 10 320 161 332 162 6 1 29 -13
50 -30z m2738 -125 c11 -7 17 -16 14 -19 -7 -7 -198 134 -198 146 0 5 37 -18
83 -51 45 -34 91 -68 101 -76z m593 94 c-3 -8 -6 -5 -6 6 -1 11 2 17 5 13 3
-3 4 -12 1 -19z m-27 -12 c0 -6 -66 -46 -76 -46 -5 0 9 11 31 25 43 26 45 27
45 21z m-2098 -66 c18 -16 27 -30 20 -30 -7 0 -10 -5 -7 -11 4 -5 -1 -19 -10
-29 -16 -18 -14 -21 44 -62 33 -24 61 -46 61 -51 0 -4 -47 -30 -104 -59 l-104
-51 -66 48 c-49 36 -76 49 -105 51 -46 2 -135 44 -123 56 18 18 318 165 339
166 13 1 37 -11 55 -28z m-1505 -129 c73 -60 129 -111 126 -114 -3 -3 -33 17
-66 45 -34 28 -63 46 -65 39 -2 -6 -8 -11 -14 -11 -5 0 -7 8 -4 18 5 14 -7 30
-43 60 -27 23 -54 42 -59 42 -6 0 -12 7 -16 15 -3 8 -2 15 2 15 4 0 66 -49
139 -109z m632 65 c-2 -2 -15 -9 -29 -15 -24 -11 -24 -11 -6 3 16 13 49 24 35
12z m2005 -14 c-6 -4 -14 -25 -17 -47 -4 -23 -16 -47 -28 -57 -21 -18 -21 -18
13 -18 74 0 168 -73 153 -120 -11 -34 -85 -63 -141 -54 -85 12 -149 78 -123
126 11 20 10 21 -3 11 -36 -30 -186 -22 -176 8 6 17 281 158 308 158 14 1 20
-3 14 -7z m-1444 -159 c72 -58 128 -108 126 -111 -3 -2 -31 17 -62 42 -44 36
-59 44 -67 34 -6 -10 -7 -9 -3 4 3 12 -14 32 -65 70 -60 46 -81 68 -64 68 3 0
63 -48 135 -107z m630 62 c0 -2 -10 -9 -22 -15 -22 -11 -22 -10 -4 4 21 17 26
19 26 11z m527 -123 c80 -62 123 -104 71 -70 -22 15 -27 15 -32 3 -9 -26 -29
-17 -23 10 4 22 -5 32 -59 73 -35 26 -64 51 -64 55 0 11 11 4 107 -71z m696
53 c-3 -9 -8 -14 -10 -11 -3 3 -2 9 2 15 9 16 15 13 8 -4z m-44 -39 c-2 -2
-15 -9 -29 -15 -24 -11 -24 -11 -6 3 16 13 49 24 35 12z m-2126 -62 c49 -38
57 -47 32 -38 -9 4 -19 -5 -28 -28 -8 -18 -12 -37 -10 -41 3 -5 32 -28 65 -52
l60 -44 -99 -49 -99 -50 -66 50 c-57 44 -74 52 -119 55 -50 3 -149 38 -149 52
0 7 346 181 360 181 3 0 28 -16 53 -36z m1160 -81 c-7 -2 -13 -20 -13 -38 0
-32 -12 -49 -65 -91 -11 -9 -3 -6 18 5 46 25 60 26 77 6 7 -9 19 -14 27 -11
19 8 63 -22 57 -39 -3 -7 8 -21 25 -31 17 -10 31 -21 31 -24 0 -6 -97 -64
-156 -93 -29 -15 -32 -14 -60 8 -16 13 -41 24 -55 25 -29 0 -55 23 -45 39 4 5
-4 17 -16 25 -25 18 -25 17 20 40 17 9 32 19 32 22 0 2 -14 -3 -32 -12 -17 -9
-56 -18 -87 -21 -58 -5 -121 11 -105 27 24 23 312 169 334 169 14 0 19 -3 13
-6z m-1489 -162 c69 -57 126 -108 126 -114 0 -6 -8 -4 -17 4 -10 8 -35 29 -55
47 -22 18 -44 29 -53 26 -10 -4 -15 0 -15 13 0 10 -24 37 -55 62 -59 48 -88
77 -68 70 6 -2 68 -51 137 -108z m646 64 c0 -2 -10 -9 -22 -15 -22 -11 -22
-10 -4 4 21 17 26 19 26 11z m597 -194 c37 -29 45 -51 11 -27 -29 20 -38 20
-38 -1 0 -13 -3 -14 -12 -5 -8 8 -8 15 0 25 9 11 -3 24 -58 66 -39 30 -70 58
-70 63 0 9 35 -17 167 -121z m613 84 c0 -2 -15 -12 -32 -20 l-33 -16 25 20
c24 20 40 26 40 16z m-1002 -186 c-8 -45 -7 -54 11 -73 26 -28 43 -74 35 -99
-3 -11 -1 -23 6 -27 7 -4 9 -17 5 -33 -7 -25 -8 -26 -31 -10 -15 9 -24 11 -24
4 0 -17 -47 -13 -54 5 -6 15 -8 15 -31 0 -28 -18 -31 -11 -16 38 5 17 14 48
20 69 l10 38 -23 -24 c-27 -29 -115 -57 -178 -57 -43 0 -90 22 -76 35 12 12
333 184 344 184 8 1 9 -14 2 -50z m-428 -69 c0 -5 -5 -10 -11 -10 -5 0 -7 5
-4 10 3 6 8 10 11 10 2 0 4 -4 4 -10z m118 -159 c89 -70 121 -102 65 -66 -25
17 -27 17 -41 -1 -13 -18 -14 -17 -9 9 4 25 -3 33 -64 79 -38 28 -69 55 -69
61 0 11 -6 15 118 -82z m692 44 c0 -2 -15 -12 -32 -20 l-33 -16 25 20 c24 20
40 26 40 16z m-390 -90 c0 -9 -9 -15 -21 -15 -18 0 -19 2 -9 15 7 8 16 15 21
15 5 0 9 -7 9 -15z"/>
<path d="M2400 3221 c0 -5 15 -21 32 -35 44 -34 66 -16 25 20 -28 24 -57 32
-57 15z"/>
<path d="M3162 2996 c-32 -16 -39 -25 -31 -33 8 -8 6 -14 -10 -23 -29 -15 -50
-1 -26 17 11 7 14 13 8 13 -6 0 -16 -6 -22 -13 -8 -11 -2 -21 29 -45 21 -18
44 -32 50 -32 17 0 130 59 130 68 0 5 -19 22 -43 39 l-44 30 -41 -21z m62 -9
c17 -12 17 -14 2 -20 -9 -4 -16 -2 -16 3 0 6 -7 10 -15 10 -8 0 -15 5 -15 10
0 14 23 12 44 -3z m56 -31 c0 -13 -113 -67 -128 -61 -13 5 -4 13 38 35 49 26
90 38 90 26z"/>
<path d="M2152 3060 c14 -22 24 -25 32 -11 3 4 -6 13 -19 19 -23 11 -24 10
-13 -8z"/>
<path d="M1950 2991 c0 -10 30 -24 37 -17 3 3 2 9 -2 15 -8 13 -35 15 -35 2z"/>
<path d="M4386 2835 c-15 -11 -16 -15 -5 -15 8 0 24 7 35 15 14 11 15 14 4 14
-8 0 -24 -6 -34 -14z"/>
<path d="M4297 2789 c-9 -6 -15 -14 -12 -19 6 -9 55 11 55 23 0 10 -22 8 -43
-4z"/>
<path d="M2530 2669 c-30 -16 -59 -30 -65 -32 -6 -3 -4 -10 4 -18 9 -9 11 -9
7 -2 -10 18 40 41 55 26 8 -8 4 -15 -16 -25 l-27 -14 36 -28 36 -27 70 37 c39
21 70 41 70 45 0 8 -99 70 -108 68 -4 -1 -32 -15 -62 -30z m80 11 c0 -5 7 -10
15 -10 18 0 20 -16 2 -23 -15 -6 -47 15 -47 32 0 6 7 11 15 11 8 0 15 -4 15
-10z m-50 -20 c-8 -5 -19 -10 -25 -10 -5 0 -3 5 5 10 8 5 20 10 25 10 6 0 3
-5 -5 -10z m130 -25 c0 -2 -30 -20 -66 -40 -47 -27 -69 -34 -77 -26 -13 13
-14 12 58 49 49 24 85 32 85 17z"/>
<path d="M3749 2561 c22 -6 21 -8 -20 -20 -24 -7 -48 -15 -54 -17 -5 -1 24 -1
67 1 42 1 84 7 94 13 15 9 12 12 -22 21 -21 6 -50 10 -64 10 l-25 -1 24 -7z"/>
<path d="M3650 2535 c-7 -9 -8 -15 -2 -15 5 0 12 7 16 15 3 8 4 15 2 15 -2 0
-9 -7 -16 -15z"/>
<path d="M3640 2490 c0 -10 23 -30 35 -30 6 0 20 6 30 14 17 12 15 14 -23 18
-23 2 -42 1 -42 -2z"/>
<path d="M4792 2364 c10 -10 20 -16 22 -13 3 3 -5 11 -17 18 -21 13 -21 12 -5
-5z"/>
<path d="M4275 2120 c-3 -6 1 -7 10 -4 17 7 65 -20 65 -37 0 -17 -27 -39 -48
-39 -24 0 -74 38 -67 51 4 5 -2 6 -11 2 -15 -5 -11 -12 22 -39 42 -35 76 -37
101 -5 19 24 16 38 -13 60 -29 23 -49 27 -59 11z"/>
<path d="M1381 2013 c18 -4 43 -52 34 -62 -4 -3 -16 6 -27 22 -11 15 -24 27
-30 27 -5 0 -2 -7 6 -16 23 -22 20 -32 -9 -26 -18 3 -25 0 -25 -12 0 -12 -7
-15 -27 -11 l-28 5 28 -11 c15 -6 25 -15 21 -20 -9 -16 24 -10 70 13 l45 21
-20 39 c-12 23 -26 38 -37 37 -15 -1 -15 -2 -1 -6z"/>
<path d="M1285 1990 c-19 -8 -19 -9 3 -9 12 -1 22 4 22 9 0 6 -1 10 -2 9 -2 0
-12 -4 -23 -9z"/>
<path d="M1250 1968 c0 -9 5 -20 10 -23 13 -8 13 5 0 25 -8 13 -10 13 -10 -2z"/>
<path d="M1220 1954 c0 -13 18 -39 24 -34 2 3 -2 14 -10 24 -8 11 -14 16 -14
10z"/>
<path d="M1268 1913 c7 -3 16 -2 19 1 4 3 -2 6 -13 5 -11 0 -14 -3 -6 -6z"/>
<path d="M2475 1894 c-44 -22 -81 -45 -82 -50 -1 -5 19 -25 45 -45 l47 -36 93
46 c50 25 92 48 92 51 -1 3 -27 21 -58 40 l-57 36 -80 -42z m120 -10 c43 -32
-29 -71 -82 -43 -14 8 -21 18 -18 27 4 11 2 12 -7 5 -7 -6 -22 -13 -33 -15
-11 -3 -29 -9 -40 -12 -11 -4 5 6 35 23 60 33 114 39 145 15z"/>
<path d="M3681 1805 c14 -8 35 -11 47 -8 35 9 15 23 -31 23 -42 -1 -42 -1 -16
-15z"/>
<path d="M3620 1801 c0 -16 30 -33 47 -26 17 6 17 7 -1 21 -22 16 -46 19 -46
5z"/>
<path d="M3586 1775 c-6 -17 2 -45 14 -45 4 0 13 7 20 15 10 12 10 18 0 30 -7
8 -16 15 -20 15 -4 0 -10 -7 -14 -15z"/>
<path d="M3730 1781 c0 -19 22 -23 38 -7 15 15 14 16 -11 16 -15 0 -27 -4 -27
-9z"/>
<path d="M3781 1767 c-10 -12 -10 -20 1 -36 7 -12 17 -20 23 -18 16 6 17 31 2
51 -12 16 -15 16 -26 3z"/>
<path d="M3675 1760 c-4 -7 -3 -16 3 -22 13 -13 54 0 49 15 -5 16 -43 21 -52
7z"/>
<path d="M3627 1734 c-14 -14 -7 -25 13 -22 12 2 21 8 21 13 0 12 -24 18 -34
9z"/>
<path d="M3725 1726 c-17 -12 -16 -14 19 -26 45 -14 51 -11 30 18 -18 26 -24
27 -49 8z"/>
<path d="M3656 1701 c-18 -7 -18 -8 -2 -14 10 -4 36 -7 59 -7 l42 0 -29 15
c-31 16 -41 17 -70 6z"/>
<path d="M1874 1574 c-18 -14 -18 -15 4 -4 12 6 22 13 22 15 0 8 -5 6 -26 -11z"/>
<path d="M1841 1531 l-74 -38 56 -42 55 -42 81 41 c45 22 81 42 81 44 0 7
-108 76 -117 76 -4 -1 -41 -18 -82 -39z m49 4 c0 -2 -10 -9 -22 -15 -22 -11
-22 -10 -4 4 21 17 26 19 26 11z m128 -39 c2 -3 -27 -21 -66 -40 -71 -36 -82
-36 -82 -4 0 13 7 18 26 18 18 0 25 5 23 18 -1 9 -1 20 0 23 1 7 91 -8 99 -15z
m-168 4 c13 -9 13 -11 0 -20 -8 -5 -18 -10 -22 -10 -11 0 -20 19 -13 30 8 12
16 12 35 0z"/>
<path d="M1788 1534 c-39 -21 -35 -28 5 -8 37 19 44 24 31 24 -5 -1 -21 -8
-36 -16z"/>
<path d="M3021 1448 l-74 -41 34 -28 c19 -16 51 -40 71 -55 l37 -26 75 42 c42
23 76 45 76 49 0 8 -126 101 -138 101 -4 0 -40 -19 -81 -42z m127 -11 c3 -15
-2 -18 -25 -15 -17 2 -29 10 -31 21 -3 15 2 18 25 15 17 -2 29 -10 31 -21z
m-89 -41 c9 -10 8 -16 -4 -26 -21 -17 -67 2 -59 25 8 19 48 20 63 1z m110 -13
c-16 -18 -78 -47 -87 -39 -14 15 43 54 82 55 16 1 17 -1 5 -16z"/>
<path d="M2450 1110 c0 -5 5 -10 10 -10 6 0 10 5 10 10 0 6 -4 10 -10 10 -5 0
-10 -4 -10 -10z"/>
<path d="M2445 1080 c-3 -5 1 -10 9 -10 9 0 16 5 16 10 0 6 -4 10 -9 10 -6 0
-13 -4 -16 -10z"/>
</g>
</svg>
